<?xml version="1.0" standalone="no"?>
<!DOCTYPE svg PUBLIC "-//W3C//DTD SVG 20010904//EN"
 "http://www.w3.org/TR/2001/REC-SVG-20010904/DTD/svg10.dtd">
<svg version="1.0" xmlns="http://www.w3.org/2000/svg"
 width="462.000000pt" height="462.000000pt" viewBox="0 0 462.000000 462.000000"
 preserveAspectRatio="xMidYMid meet">

<g transform="translate(0.000000,462.000000) scale(0.100000,-0.100000)"
fill="#000000" stroke="none">
<path d="M2093 4116 c8 -9 43 -16 88 -19 41 -2 88 -7 104 -11 39 -8 149 -26
200 -32 22 -3 49 -9 60 -14 21 -9 97 -19 283 -36 34 -4 65 -10 68 -15 3 -5 24
-9 48 -9 23 0 46 -4 51 -9 6 -5 51 -12 100 -15 l90 -5 -80 15 c-90 17 -181 32
-240 40 -22 3 -44 10 -49 15 -6 5 -24 9 -41 9 -18 0 -35 3 -39 7 -3 4 -14 8
-24 9 -97 13 -123 18 -128 25 -3 5 -30 9 -61 9 -31 0 -70 4 -87 9 -70 21 -209
41 -281 41 -66 0 -74 -2 -62 -14z"/>
<path d="M1913 4066 c-32 -18 -10 -36 42 -36 23 0 45 -3 49 -7 4 -4 19 -9 34
-9 87 -6 173 -18 178 -25 3 -5 23 -9 45 -9 21 0 47 -4 57 -9 15 -8 232 -42
362 -58 25 -3 49 -9 54 -14 6 -5 26 -9 45 -9 20 0 54 -5 76 -11 22 -5 72 -14
110 -19 74 -10 123 -18 270 -45 50 -9 109 -19 133 -22 30 -4 52 -14 75 -37 46
-45 67 -74 67 -91 0 -8 4 -15 9 -15 5 0 12 -8 15 -18 4 -10 14 -27 24 -38 10
-10 25 -35 35 -54 32 -66 65 -95 44 -40 -6 17 -15 30 -19 30 -4 0 -8 7 -8 15
0 8 -3 15 -7 15 -5 0 -16 20 -26 45 -11 25 -23 45 -28 45 -5 0 -9 7 -9 15 0 8
-3 15 -8 15 -4 0 -16 17 -27 38 -11 20 -32 56 -48 80 -25 38 -32 42 -70 42
-41 0 -118 11 -222 31 -27 6 -68 12 -90 15 -22 3 -49 9 -60 14 -11 5 -67 14
-125 20 -58 6 -126 14 -152 17 -27 3 -48 8 -48 13 0 4 -26 10 -57 13 -32 3
-71 8 -88 12 -30 7 -136 21 -230 31 -27 3 -54 10 -59 15 -6 5 -25 9 -43 9 -34
0 -167 25 -219 41 -38 11 -53 10 -81 -5z"/>
<path d="M1675 3980 c-8 -13 -1 -15 145 -35 69 -9 133 -21 142 -26 10 -5 31
-9 48 -9 17 0 38 -4 48 -9 21 -11 147 -33 222 -39 30 -2 59 -8 64 -13 6 -5 29
-9 51 -9 23 0 45 -3 49 -7 4 -5 42 -13 84 -20 42 -7 100 -18 127 -24 28 -6 77
-13 110 -16 33 -3 62 -8 65 -12 4 -6 67 -17 218 -37 23 -3 42 -10 42 -14 0 -5
28 -11 63 -13 142 -12 267 -41 267 -63 0 -7 3 -14 8 -16 12 -5 82 -104 82
-116 0 -6 3 -12 8 -14 12 -5 62 -76 62 -87 0 -6 3 -11 8 -11 4 0 16 -16 26
-35 11 -19 22 -35 26 -35 4 0 10 -8 14 -17 9 -28 44 -81 71 -111 14 -15 25
-31 25 -37 0 -5 14 -26 30 -45 17 -19 33 -43 36 -52 3 -10 10 -18 15 -18 5 0
9 -5 9 -11 0 -6 7 -17 15 -25 13 -14 15 -14 15 0 0 9 -3 16 -7 16 -10 0 -43
58 -43 75 0 7 -4 15 -9 17 -4 2 -32 39 -62 83 -29 44 -56 82 -59 85 -3 3 -14
22 -25 43 -11 21 -28 47 -37 57 -10 11 -18 24 -18 30 0 5 -4 10 -8 10 -5 0
-18 20 -30 44 -12 24 -29 49 -37 56 -9 7 -23 29 -32 49 -10 20 -23 42 -30 49
-7 7 -13 17 -13 22 0 17 -68 76 -91 78 -13 1 -49 7 -79 13 -30 6 -84 14 -120
19 -104 14 -182 27 -230 39 -25 6 -60 11 -77 11 -18 0 -33 5 -33 10 0 6 -20
10 -44 10 -25 0 -47 4 -50 8 -3 5 -45 12 -94 15 -50 4 -102 11 -116 17 -15 5
-43 10 -62 10 -19 0 -34 5 -34 10 0 6 -18 10 -40 10 -22 0 -48 4 -58 10 -9 5
-60 14 -112 20 -52 6 -116 13 -142 16 -27 3 -48 10 -48 15 0 5 -18 9 -40 9
-21 0 -65 7 -97 15 -65 17 -209 20 -218 5z"/>
<path d="M3238 3933 c7 -3 16 -2 19 1 4 3 -2 6 -13 5 -11 0 -14 -3 -6 -6z"/>
<path d="M1460 3911 c-8 -5 -12 -12 -10 -14 12 -8 158 -37 192 -37 20 0 40 -4
43 -10 3 -5 22 -10 41 -10 19 0 42 -4 52 -9 15 -8 88 -23 182 -37 19 -3 44 -9
55 -14 11 -5 43 -11 70 -14 28 -2 86 -12 130 -21 44 -9 99 -19 123 -22 23 -3
42 -9 42 -14 0 -5 24 -9 54 -9 30 0 57 -4 60 -9 3 -5 39 -12 81 -16 41 -4 77
-11 81 -16 3 -5 23 -9 44 -9 21 0 41 -4 44 -9 6 -10 31 -14 171 -31 50 -7 94
-16 100 -21 5 -5 25 -9 45 -9 20 0 40 -3 44 -7 9 -10 120 -31 198 -39 45 -5
64 -13 88 -35 16 -16 30 -33 30 -37 0 -5 8 -17 18 -28 27 -30 72 -92 72 -99 0
-4 6 -13 13 -20 19 -22 29 -35 71 -95 22 -30 43 -56 48 -58 4 -2 8 -8 8 -14 0
-5 6 -16 13 -23 26 -30 37 -44 37 -50 0 -3 11 -18 25 -33 14 -15 25 -32 25
-39 0 -7 3 -13 8 -13 4 0 21 -20 37 -45 17 -24 33 -45 38 -45 4 0 7 -5 7 -10
0 -6 5 -16 10 -23 6 -7 19 -23 30 -36 11 -13 23 -22 26 -18 5 5 -13 47 -25 57
-11 9 -61 79 -61 85 0 3 -5 11 -10 18 -10 11 -43 56 -105 142 -11 16 -24 33
-30 39 -5 6 -32 46 -60 89 -27 43 -67 99 -87 125 -21 25 -38 52 -38 59 0 7 -4
13 -8 13 -4 0 -16 14 -26 32 -11 17 -25 39 -32 47 -7 9 -21 26 -31 39 -14 18
-34 26 -83 33 -36 5 -87 14 -115 19 -105 22 -142 30 -212 42 -39 7 -75 16 -79
21 -4 4 -33 7 -65 7 -32 0 -60 4 -63 9 -3 5 -29 11 -58 15 -79 9 -185 30 -194
39 -4 4 -33 7 -65 7 -32 0 -61 5 -64 10 -3 6 -18 10 -33 10 -36 0 -193 30
-214 41 -10 5 -33 9 -52 9 -19 0 -38 5 -41 10 -3 6 -27 10 -53 10 -52 0 -207
27 -234 41 -10 5 -33 9 -51 9 -18 0 -38 5 -43 10 -14 14 -195 24 -214 11z"/>
<path d="M3353 3913 c9 -2 23 -2 30 0 6 3 -1 5 -18 5 -16 0 -22 -2 -12 -5z"/>
<path d="M1227 3833 c-18 -18 -7 -23 91 -40 18 -3 35 -9 38 -14 3 -5 29 -9 58
-9 29 0 56 -3 60 -7 7 -8 98 -28 179 -40 20 -3 40 -9 43 -14 3 -5 29 -9 58 -9
29 0 56 -3 60 -7 7 -8 98 -28 179 -40 20 -3 37 -9 37 -13 0 -4 19 -10 43 -13
23 -2 53 -7 67 -10 14 -3 48 -8 75 -12 28 -3 64 -10 80 -15 29 -8 44 -12 160
-40 46 -11 112 -23 210 -37 22 -3 42 -8 45 -12 5 -7 78 -22 190 -41 105 -17
125 -21 145 -30 20 -9 107 -27 178 -37 20 -3 40 -9 43 -14 3 -5 20 -9 38 -9
34 0 51 -15 111 -95 17 -22 45 -56 62 -75 18 -19 33 -39 33 -43 0 -5 16 -25
35 -44 19 -19 35 -38 35 -42 0 -5 8 -17 18 -29 10 -11 27 -33 38 -48 26 -36
64 -84 91 -114 13 -14 23 -29 23 -34 0 -5 16 -24 35 -43 19 -19 35 -38 35 -43
0 -6 5 -10 10 -10 6 0 10 -6 10 -13 0 -7 8 -19 18 -28 9 -8 26 -27 37 -42 11
-15 25 -29 32 -31 27 -11 -44 103 -89 143 -10 8 -18 22 -18 29 0 8 -16 29 -35
48 -19 18 -35 37 -35 41 0 5 -10 19 -23 33 -13 14 -60 77 -104 140 -45 63 -93
127 -107 142 -14 15 -26 30 -26 34 0 3 -12 21 -27 39 -42 48 -56 67 -77 100
-30 46 -38 51 -86 58 -25 3 -76 13 -115 22 -38 10 -87 19 -107 22 -21 3 -38 9
-38 14 0 5 -21 9 -47 9 -27 1 -68 6 -93 11 -25 6 -62 13 -83 16 -20 3 -40 9
-43 14 -3 5 -21 9 -40 9 -19 0 -42 4 -52 10 -9 5 -53 14 -97 20 -138 19 -155
22 -161 31 -3 5 -23 9 -44 9 -21 0 -41 4 -44 9 -3 5 -35 12 -71 16 -36 3 -67
11 -70 16 -4 5 -30 9 -60 9 -30 0 -57 5 -60 10 -3 6 -24 10 -45 10 -21 0 -41
4 -44 9 -3 5 -35 12 -71 16 -36 3 -67 11 -70 16 -4 5 -30 9 -59 9 -29 0 -56 3
-60 7 -7 8 -93 26 -184 39 -23 4 -45 11 -48 15 -3 5 -23 9 -45 9 -21 0 -39 5
-39 10 0 11 -172 14 -183 3z"/>
<path d="M1040 3760 c-8 -5 -25 -10 -38 -10 -35 0 -21 -24 16 -28 18 -2 32 -7
32 -12 0 -4 24 -10 53 -13 28 -2 81 -12 117 -21 36 -10 82 -20 103 -23 20 -3
37 -9 37 -13 0 -4 17 -10 38 -13 107 -13 202 -32 202 -39 0 -4 14 -8 30 -8 17
0 38 -4 48 -9 21 -11 122 -32 182 -38 25 -3 49 -9 55 -14 5 -5 23 -9 40 -9 18
0 35 -3 39 -7 8 -8 89 -28 176 -42 30 -6 73 -14 95 -20 22 -5 69 -17 105 -26
36 -9 80 -19 98 -22 18 -3 35 -9 38 -14 3 -5 27 -9 53 -9 26 0 51 -3 55 -7 3
-4 14 -8 24 -10 9 -1 40 -7 67 -13 28 -7 65 -14 83 -17 18 -3 35 -9 38 -14 3
-5 20 -9 39 -9 19 0 36 -4 39 -9 3 -5 39 -12 81 -16 41 -4 77 -11 81 -16 3 -5
18 -9 34 -9 16 0 31 -4 34 -9 3 -5 23 -11 43 -14 75 -10 138 -31 153 -50 8
-11 29 -36 47 -56 17 -20 52 -61 78 -91 25 -30 63 -73 84 -95 20 -23 44 -51
52 -63 23 -32 100 -121 132 -152 15 -15 27 -32 27 -37 0 -6 16 -24 35 -40 19
-17 35 -33 35 -37 0 -4 19 -27 42 -52 23 -24 51 -58 62 -74 23 -32 36 -38 36
-16 0 19 -66 114 -107 153 -18 17 -33 35 -33 40 0 4 -16 25 -35 45 -19 20 -35
41 -35 46 0 6 -3 12 -8 14 -4 2 -32 32 -62 68 -30 36 -57 67 -61 70 -3 3 -18
23 -35 45 -16 22 -44 56 -61 75 -18 19 -33 40 -33 46 0 6 -12 22 -27 36 -16
13 -41 42 -58 64 -56 73 -102 114 -128 114 -14 0 -28 4 -31 9 -3 5 -20 11 -38
14 -101 17 -155 29 -170 37 -10 6 -38 10 -62 10 -25 0 -47 4 -50 9 -3 5 -23
11 -43 14 -60 7 -156 28 -175 38 -10 5 -29 9 -42 9 -14 0 -28 5 -31 10 -3 6
-27 10 -53 10 -26 0 -69 7 -96 15 -27 8 -62 15 -78 15 -15 0 -28 5 -28 10 0 6
-15 10 -34 10 -19 0 -38 5 -41 10 -3 6 -25 10 -48 10 -23 1 -62 6 -87 11 -25
6 -60 13 -78 16 -18 3 -35 9 -38 14 -3 5 -20 9 -39 9 -19 0 -36 4 -39 9 -3 5
-32 12 -63 15 -72 8 -152 25 -175 37 -10 5 -33 9 -52 9 -19 0 -37 4 -40 9 -3
5 -33 12 -66 16 -33 4 -63 11 -66 16 -3 5 -27 9 -55 9 -27 0 -49 4 -49 9 0 5
-19 11 -42 14 -24 3 -74 13 -113 22 -38 9 -92 19 -120 22 -27 3 -54 9 -59 14
-12 11 -17 11 -36 -1z"/>
<path d="M922 3634 c-26 -13 -52 -56 -52 -85 0 -18 3 -18 45 6 46 25 95 33 95
15 0 -5 13 -10 29 -10 16 0 48 -7 71 -15 23 -8 57 -15 76 -15 18 0 36 -4 39
-10 3 -5 19 -10 36 -10 16 0 37 -4 47 -10 20 -11 99 -30 157 -37 22 -3 44 -9
49 -14 6 -5 25 -9 42 -9 18 0 35 -4 38 -9 3 -4 25 -11 48 -15 42 -7 93 -21
133 -37 11 -4 38 -10 60 -12 22 -3 51 -8 65 -11 14 -4 42 -10 63 -13 21 -3 40
-10 43 -14 3 -5 18 -9 34 -9 16 0 32 -4 35 -10 3 -5 19 -10 34 -10 15 0 31 -3
35 -7 3 -4 14 -8 24 -9 92 -13 147 -26 184 -45 10 -5 28 -9 42 -9 13 0 43 -7
66 -15 23 -8 57 -15 76 -15 18 0 35 -4 38 -9 3 -5 20 -11 38 -14 18 -3 62 -13
98 -22 36 -9 83 -19 105 -22 22 -3 44 -9 49 -14 6 -5 23 -9 38 -9 16 0 36 -4
46 -10 17 -9 89 -27 150 -37 17 -3 32 -9 32 -14 0 -5 13 -9 29 -9 63 0 120
-37 237 -156 63 -63 114 -118 114 -121 0 -3 21 -26 48 -52 26 -26 83 -87 127
-135 44 -48 89 -95 99 -104 10 -9 26 -25 35 -35 9 -10 51 -55 94 -98 66 -69
77 -77 77 -56 0 13 -11 37 -25 53 -14 16 -25 32 -25 37 0 4 -7 7 -15 7 -8 0
-15 4 -15 9 0 5 -20 29 -45 54 -25 26 -45 49 -45 54 0 4 -13 21 -30 37 -75 78
-145 155 -178 196 -21 24 -53 61 -72 82 -19 21 -60 65 -90 98 -30 34 -74 82
-97 107 -23 25 -50 57 -60 70 -10 12 -28 23 -41 23 -28 0 -150 29 -174 41 -10
5 -31 9 -47 9 -17 0 -33 5 -36 10 -3 6 -23 10 -43 10 -35 0 -71 8 -152 31 -19
6 -46 13 -60 15 -14 3 -34 10 -45 15 -19 8 -111 26 -188 36 -20 3 -40 9 -43
14 -3 5 -18 9 -33 9 -15 0 -31 3 -35 8 -8 8 -109 31 -171 38 -22 3 -49 9 -60
13 -11 5 -54 16 -95 26 -92 21 -140 35 -162 46 -10 5 -32 9 -49 9 -36 0 -166
28 -191 41 -10 5 -29 9 -42 9 -14 0 -28 5 -31 10 -3 6 -20 10 -37 10 -36 0
-165 28 -190 41 -10 5 -29 9 -42 9 -14 0 -27 4 -30 9 -3 4 -29 11 -58 15 -69
8 -148 26 -170 37 -10 5 -31 9 -48 9 -16 0 -30 4 -30 9 0 12 -41 10 -68 -5z"/>
<path d="M960 3455 c-14 -8 -35 -14 -47 -15 -13 0 -23 -4 -23 -10 0 -5 -8 -10
-17 -10 -22 -1 -53 -23 -53 -39 0 -6 -4 -11 -10 -11 -5 0 -10 -11 -10 -25 0
-14 4 -25 8 -25 5 0 37 11 72 25 35 14 76 25 91 25 15 0 31 5 34 10 3 6 22 10
41 10 19 0 34 -4 34 -10 0 -5 20 -10 44 -10 25 0 48 -4 51 -10 3 -5 14 -10 24
-10 18 0 103 -23 146 -40 25 -10 107 -28 163 -36 23 -4 45 -11 48 -15 3 -5 15
-9 28 -9 12 0 26 -3 30 -7 10 -10 137 -42 168 -43 15 0 30 -4 33 -10 3 -5 19
-10 34 -10 15 0 31 -3 35 -7 9 -9 96 -32 146 -39 19 -3 44 -9 55 -14 11 -5 31
-11 45 -14 64 -13 129 -32 136 -39 4 -4 20 -7 36 -7 15 0 28 -4 28 -10 0 -5
18 -10 40 -10 44 0 150 -30 150 -42 0 -4 11 -8 25 -8 14 0 25 -4 25 -8 0 -4
21 -14 47 -20 45 -12 97 -33 136 -53 9 -5 39 -16 65 -25 26 -8 65 -23 87 -33
92 -42 117 -51 135 -51 11 0 20 -4 20 -10 0 -5 7 -10 15 -10 8 0 23 -4 33 -9
9 -4 35 -16 57 -26 22 -9 48 -21 57 -26 10 -5 24 -9 32 -9 8 0 44 -13 79 -30
65 -30 114 -68 219 -172 32 -32 61 -58 66 -58 4 0 18 -16 32 -35 14 -19 29
-35 33 -35 4 0 47 -37 94 -82 48 -46 105 -101 128 -123 65 -62 99 -87 104 -74
6 20 -23 62 -87 123 -126 121 -348 345 -367 370 -11 14 -24 26 -28 26 -10 0
-37 26 -37 35 0 9 -27 35 -37 35 -7 0 -24 19 -53 59 -6 9 -98 72 -127 87 -11
7 -38 17 -60 24 -21 7 -54 19 -73 27 -78 34 -97 41 -142 54 -27 7 -48 17 -48
21 0 4 -9 8 -20 8 -11 0 -28 4 -38 9 -49 25 -95 41 -117 41 -13 0 -27 5 -30
10 -3 6 -19 10 -35 10 -16 0 -31 4 -35 9 -3 6 -26 13 -50 17 -25 3 -48 10 -51
15 -3 5 -21 9 -40 9 -19 0 -34 5 -34 10 0 6 -17 10 -37 11 -40 0 -168 31 -179
42 -4 4 -20 7 -36 7 -15 0 -28 5 -28 10 0 6 -19 10 -42 10 -24 1 -61 7 -83 15
-22 8 -50 15 -62 15 -12 0 -25 5 -28 10 -3 6 -19 10 -35 10 -16 0 -31 4 -34 9
-3 4 -25 11 -48 15 -66 10 -141 27 -160 37 -10 5 -29 9 -42 9 -14 0 -27 4 -30
9 -4 5 -29 12 -56 16 -27 4 -52 11 -56 16 -3 5 -23 9 -44 9 -21 0 -41 4 -44 9
-3 5 -20 11 -38 14 -61 10 -133 28 -150 37 -10 6 -29 10 -43 10 -14 0 -25 5
-25 10 0 6 -17 10 -37 10 -21 0 -60 7 -87 15 -60 18 -84 18 -116 0z"/>
<path d="M985 3258 c-33 -5 -64 -14 -69 -19 -6 -5 -25 -9 -43 -9 -18 0 -33 -4
-33 -10 0 -5 -13 -10 -28 -10 -34 0 -54 -15 -70 -52 l-12 -28 53 0 c28 1 79 7
112 15 33 8 77 15 97 15 20 0 40 5 43 10 8 12 112 13 119 1 3 -5 26 -12 51
-15 24 -4 47 -11 50 -17 4 -5 19 -9 36 -9 16 0 37 -4 47 -9 9 -5 44 -17 77
-26 89 -25 128 -37 150 -46 11 -4 34 -10 50 -13 52 -8 133 -31 141 -39 4 -4
17 -7 29 -7 12 0 25 -3 29 -7 9 -9 77 -33 95 -33 8 0 37 -11 65 -24 28 -13 74
-31 101 -41 50 -16 114 -44 168 -71 16 -8 39 -14 51 -14 12 0 26 -4 31 -8 6
-5 42 -21 80 -37 39 -15 74 -32 80 -37 5 -4 17 -8 27 -8 10 0 26 -4 36 -9 9
-4 35 -16 57 -26 22 -9 48 -21 57 -26 10 -5 28 -9 40 -9 13 0 32 -7 42 -15 11
-8 28 -15 38 -15 10 0 18 -4 18 -8 0 -5 37 -21 83 -36 45 -15 100 -35 122 -45
93 -42 117 -51 135 -51 11 0 20 -4 20 -10 0 -5 7 -10 15 -10 15 0 23 -3 83
-33 19 -9 40 -17 48 -17 8 0 14 -4 14 -10 0 -5 12 -10 27 -10 15 0 53 -12 83
-26 30 -15 64 -31 75 -36 11 -5 36 -23 55 -41 19 -18 58 -50 85 -72 28 -22 55
-44 62 -50 7 -5 18 -15 25 -20 7 -6 45 -35 83 -65 39 -30 75 -59 81 -65 6 -5
23 -19 38 -30 16 -11 44 -35 65 -52 42 -38 51 -40 51 -13 0 18 -109 140 -125
140 -3 0 -16 10 -29 23 -13 12 -47 42 -76 67 -29 25 -77 68 -107 95 -31 28
-65 57 -77 65 -11 8 -38 30 -58 50 -83 79 -107 100 -112 100 -4 0 -24 11 -46
25 -22 14 -46 25 -55 25 -8 0 -15 4 -15 9 0 5 -13 11 -30 14 -26 6 -230 86
-272 108 -10 5 -27 9 -38 9 -11 0 -20 4 -20 8 0 4 -26 16 -57 27 -55 18 -113
42 -210 86 -24 10 -52 19 -62 19 -11 0 -22 4 -26 9 -3 5 -19 12 -35 16 -17 4
-30 11 -30 16 0 5 -10 9 -23 9 -13 0 -27 4 -32 8 -6 5 -32 17 -60 26 -55 19
-87 32 -125 50 -14 7 -45 19 -70 26 -25 7 -49 17 -55 22 -5 4 -19 8 -31 8 -13
0 -25 4 -28 9 -4 5 -24 12 -46 16 -22 4 -42 11 -46 16 -3 5 -23 9 -44 9 -21 0
-42 5 -45 10 -3 6 -19 10 -35 10 -16 0 -31 4 -34 9 -3 5 -26 12 -51 15 -24 4
-47 11 -50 17 -4 5 -17 9 -30 9 -13 0 -27 5 -30 10 -3 6 -20 10 -37 10 -31 0
-186 43 -220 61 -10 5 -30 9 -45 9 -25 0 -172 41 -218 61 -24 10 -132 30 -154
28 -9 -1 -43 -6 -76 -11z"/>
<path d="M1020 3038 c-63 -5 -162 -11 -220 -14 -111 -6 -120 -10 -120 -56 l0
-28 264 0 c166 0 267 -4 271 -10 3 -5 17 -10 31 -10 13 0 24 -4 24 -8 0 -4 32
-16 70 -27 39 -11 70 -23 70 -27 0 -4 7 -8 15 -8 15 0 24 -3 82 -34 17 -9 38
-16 47 -16 9 0 24 -4 34 -9 9 -5 42 -19 72 -31 30 -12 69 -28 85 -35 17 -6 55
-20 85 -30 30 -10 70 -27 88 -37 18 -10 41 -18 51 -18 16 0 59 -17 103 -41 10
-5 25 -9 33 -9 8 0 15 -4 15 -8 0 -4 32 -16 70 -27 39 -11 70 -23 70 -27 0 -4
7 -8 15 -8 15 0 24 -3 82 -34 17 -9 40 -16 51 -16 12 0 24 -4 27 -10 3 -5 13
-10 22 -10 15 0 102 -36 145 -60 10 -6 27 -10 38 -10 11 0 28 -4 38 -10 39
-21 134 -60 147 -60 9 0 23 -4 33 -10 9 -5 33 -15 52 -23 19 -8 51 -22 70 -30
19 -9 56 -21 83 -27 26 -7 47 -16 47 -21 0 -5 11 -9 25 -9 14 0 25 -4 25 -8 0
-4 26 -16 58 -26 31 -10 65 -22 74 -27 10 -5 25 -9 33 -9 8 0 15 -4 15 -9 0
-5 10 -11 23 -14 88 -20 325 -132 335 -159 2 -4 10 -8 17 -8 7 0 15 -3 17 -7
2 -5 41 -33 88 -63 47 -30 87 -58 88 -62 2 -5 10 -8 17 -8 7 0 15 -3 17 -7 4
-11 86 -63 98 -63 5 0 10 -4 10 -10 0 -5 7 -10 15 -10 18 0 19 11 3 45 -10 22
-78 77 -192 155 -11 8 -30 24 -41 35 -11 11 -31 26 -45 33 -14 7 -42 29 -62
47 -20 19 -42 35 -49 35 -6 0 -22 11 -35 25 -13 14 -27 25 -33 25 -5 0 -11 4
-13 8 -6 14 -132 79 -188 96 -30 10 -73 26 -95 35 -96 43 -117 51 -135 51 -11
0 -20 5 -20 10 0 6 -11 10 -24 10 -14 0 -27 4 -31 9 -3 5 -19 12 -35 16 -17 4
-30 11 -30 16 0 5 -9 9 -19 9 -11 0 -23 5 -26 10 -3 6 -16 10 -27 10 -12 0
-40 9 -62 19 -60 28 -106 46 -151 61 -22 6 -62 22 -90 35 -27 13 -68 29 -90
35 -44 14 -71 24 -158 64 -32 14 -64 26 -72 26 -9 0 -23 4 -33 9 -52 28 -135
61 -152 61 -10 0 -22 5 -25 10 -3 6 -13 10 -22 10 -9 0 -49 16 -89 35 -40 19
-80 35 -88 35 -9 0 -24 4 -34 10 -9 5 -35 16 -57 25 -22 9 -47 20 -55 24 -8 4
-43 16 -77 26 -35 11 -63 23 -63 27 0 5 -11 8 -25 8 -14 0 -25 4 -25 9 0 7
-43 20 -132 38 -16 3 -28 9 -28 14 0 5 -10 9 -23 9 -13 0 -27 3 -30 6 -11 11
-111 43 -135 44 -13 0 -31 4 -40 9 -30 15 -74 17 -192 9z"/>
<path d="M637 2843 c-2 -5 -7 -20 -11 -34 -7 -30 -14 -27 124 -55 41 -9 92
-18 113 -21 20 -3 40 -9 43 -14 3 -5 25 -9 48 -9 71 0 197 -30 258 -61 10 -5
25 -9 34 -9 15 0 50 -14 171 -66 17 -8 35 -14 41 -14 5 0 59 -20 118 -45 60
-25 115 -45 122 -45 7 0 20 -4 30 -9 19 -11 70 -32 122 -51 19 -7 39 -17 45
-22 5 -4 19 -8 32 -8 12 0 48 -12 80 -26 68 -31 85 -37 138 -54 22 -6 63 -22
90 -35 28 -13 75 -31 105 -40 30 -9 73 -25 95 -34 96 -43 117 -51 135 -51 11
0 20 -4 20 -10 0 -5 10 -10 23 -10 13 0 27 -3 31 -7 11 -11 99 -43 119 -43 9
0 17 -4 17 -10 0 -5 11 -10 25 -10 14 0 25 -4 25 -10 0 -5 8 -10 18 -10 9 0
39 -11 66 -25 27 -14 57 -25 67 -25 9 0 30 -7 45 -15 16 -8 37 -15 47 -15 9 0
17 -4 17 -10 0 -5 8 -10 18 -10 10 0 22 -4 28 -8 5 -4 36 -16 69 -27 33 -10
64 -22 69 -27 6 -4 18 -8 28 -8 10 0 18 -4 18 -10 0 -5 7 -10 15 -10 18 0 104
-27 127 -40 10 -6 25 -10 33 -10 8 0 15 -4 15 -10 0 -5 8 -10 18 -10 9 0 30
-7 46 -15 15 -8 39 -15 52 -15 13 0 24 -4 24 -10 0 -5 7 -10 15 -10 9 0 41
-16 71 -35 30 -19 59 -35 65 -35 8 0 78 -35 114 -58 6 -4 24 -12 41 -18 27 -9
33 -8 47 9 17 21 12 47 -9 47 -8 0 -14 5 -14 10 0 6 -9 10 -20 10 -11 0 -20 4
-20 8 0 5 -16 17 -35 28 -19 10 -35 22 -35 26 0 5 -7 8 -15 8 -14 0 -94 45
-105 60 -3 3 -20 12 -38 20 -19 7 -39 18 -45 24 -18 17 -77 43 -130 58 -26 6
-47 16 -47 20 0 4 -6 8 -13 8 -7 0 -32 9 -55 20 -23 11 -56 23 -72 27 -17 3
-33 10 -36 14 -3 5 -13 9 -22 9 -9 0 -39 11 -67 25 -27 13 -58 25 -67 25 -10
0 -18 5 -18 10 0 6 -8 10 -19 10 -19 0 -62 16 -138 51 -24 10 -49 19 -57 19
-14 0 -60 17 -131 49 -22 10 -65 26 -95 36 -30 10 -59 21 -64 26 -6 5 -18 9
-27 9 -10 0 -19 3 -21 8 -4 9 -100 42 -122 42 -9 0 -16 5 -16 10 0 6 -9 10
-19 10 -11 0 -23 5 -26 10 -3 6 -14 10 -23 10 -9 0 -39 11 -66 25 -27 14 -58
25 -68 25 -10 0 -26 4 -36 10 -41 22 -185 77 -229 87 -13 3 -23 9 -23 14 0 5
-8 9 -18 9 -10 0 -22 3 -25 6 -10 10 -109 43 -129 44 -9 0 -18 3 -20 8 -4 9
-128 62 -146 62 -7 0 -20 4 -30 9 -43 23 -145 61 -163 61 -10 0 -19 5 -19 10
0 6 -9 10 -20 10 -16 0 -95 31 -150 60 -9 4 -36 11 -60 15 -25 3 -58 9 -75 12
-41 6 -215 24 -300 30 -38 2 -74 9 -79 14 -12 11 -83 12 -89 2z"/>
<path d="M600 2652 c0 -27 6 -33 53 -55 28 -14 77 -33 107 -42 71 -22 110 -38
110 -46 0 -4 12 -9 28 -12 33 -6 76 -21 207 -73 39 -15 74 -31 79 -36 6 -4 22
-8 37 -8 15 0 30 -4 33 -9 3 -5 18 -12 33 -16 15 -3 45 -15 67 -26 22 -10 48
-19 58 -19 10 0 41 -11 70 -25 28 -14 59 -25 68 -25 9 0 21 -5 27 -11 6 -6 26
-14 44 -19 42 -10 132 -43 139 -51 3 -3 30 -14 60 -24 60 -19 96 -33 120 -45
9 -4 30 -11 48 -14 17 -4 34 -12 37 -17 4 -5 15 -9 26 -9 10 0 27 -4 37 -9 9
-5 37 -17 62 -26 25 -9 53 -21 62 -26 10 -5 25 -9 33 -9 8 0 15 -4 15 -10 0
-5 11 -10 25 -10 23 0 45 -8 140 -51 22 -10 67 -26 100 -36 33 -9 62 -20 65
-23 3 -3 46 -19 95 -35 50 -17 92 -33 93 -37 2 -5 10 -8 17 -8 7 0 26 -7 41
-15 16 -8 37 -15 47 -15 9 0 17 -4 17 -10 0 -5 11 -10 25 -10 14 0 33 -4 43
-9 40 -21 91 -41 106 -41 9 0 16 -4 16 -10 0 -5 9 -10 19 -10 11 0 23 -4 26
-10 3 -5 18 -10 32 -10 22 0 91 -27 155 -61 10 -5 27 -9 39 -9 12 0 47 -12 78
-26 75 -35 89 -41 136 -54 22 -7 55 -19 73 -26 17 -8 47 -20 65 -28 17 -7 50
-19 72 -26 22 -7 48 -17 58 -22 15 -7 24 -3 43 19 30 35 27 54 -11 66 -16 6
-32 13 -35 16 -3 3 -18 12 -35 20 -16 7 -42 20 -57 27 -14 8 -33 14 -42 14 -9
0 -24 4 -34 9 -9 5 -28 13 -42 18 -14 6 -42 18 -63 27 -21 9 -47 16 -57 16
-11 0 -20 5 -20 10 0 6 -11 10 -25 10 -14 0 -25 4 -25 9 0 5 -13 11 -30 14
-16 4 -49 16 -72 27 -23 11 -50 20 -60 20 -10 0 -26 4 -36 9 -47 26 -133 61
-187 78 -33 10 -61 21 -63 25 -2 5 -11 8 -21 8 -9 0 -21 4 -27 8 -5 5 -29 14
-54 21 -25 7 -61 20 -80 28 -19 8 -44 18 -55 23 -11 4 -37 15 -58 24 -21 9
-44 16 -52 16 -9 0 -23 4 -33 9 -20 10 -49 22 -114 48 -27 10 -48 21 -48 26 0
4 -13 7 -29 7 -17 0 -33 5 -36 10 -3 6 -13 10 -22 10 -14 0 -66 20 -105 41
-10 5 -26 9 -36 9 -17 0 -60 17 -104 41 -10 5 -24 9 -32 9 -8 0 -16 3 -18 8
-4 9 -100 42 -122 42 -9 0 -16 5 -16 10 0 6 -7 10 -15 10 -8 0 -23 4 -33 9
-42 21 -94 41 -107 41 -9 0 -23 4 -33 9 -20 10 -49 22 -114 48 -27 10 -48 21
-48 26 0 4 -15 7 -33 7 -18 0 -37 4 -42 9 -6 4 -34 16 -62 27 -29 10 -53 22
-53 26 0 4 -11 8 -25 8 -22 0 -68 16 -117 41 -10 5 -25 9 -33 9 -8 0 -15 4
-15 8 0 4 -35 16 -77 27 -43 10 -82 21 -88 25 -5 3 -30 12 -55 19 -25 7 -63
19 -85 27 -23 8 -53 14 -67 14 -15 0 -30 5 -33 10 -3 6 -19 10 -36 10 -16 0
-29 4 -29 9 0 4 -19 11 -42 15 -24 3 -53 9 -65 12 -20 6 -23 3 -23 -24z"/>
<path d="M596 2512 c-11 -10 -6 -53 7 -66 7 -8 22 -16 34 -20 11 -4 28 -15 38
-26 10 -11 24 -20 32 -20 7 0 31 -11 53 -25 22 -14 44 -25 49 -25 5 0 11 -3
13 -7 2 -5 19 -16 38 -25 37 -19 72 -40 80 -48 3 -3 24 -14 48 -24 23 -11 42
-23 42 -28 0 -4 6 -8 13 -8 6 0 35 -11 62 -25 28 -13 58 -25 68 -25 9 0 25 -4
35 -9 40 -21 148 -61 165 -61 9 0 25 -4 35 -9 15 -8 62 -28 117 -50 11 -5 31
-13 45 -19 14 -6 36 -13 50 -16 43 -8 100 -31 100 -38 0 -5 9 -8 19 -8 11 0
22 -3 25 -8 2 -4 36 -16 75 -27 39 -10 71 -23 71 -27 0 -4 7 -8 15 -8 8 0 23
-4 33 -9 9 -6 42 -17 72 -26 30 -9 64 -20 75 -25 11 -4 38 -15 60 -24 22 -10
48 -21 57 -26 10 -6 27 -10 38 -10 11 0 28 -4 38 -9 26 -14 82 -37 127 -52 22
-8 42 -17 45 -20 3 -3 20 -9 37 -12 18 -4 52 -16 75 -27 23 -11 50 -20 60 -20
10 0 18 -4 18 -10 0 -5 8 -10 18 -10 19 0 114 -31 122 -40 3 -4 46 -19 95 -35
50 -16 92 -33 93 -37 2 -5 12 -8 21 -8 16 0 59 -17 103 -41 10 -5 29 -9 43 -9
14 0 25 -4 25 -10 0 -5 11 -10 24 -10 14 0 27 -4 30 -9 3 -5 18 -12 33 -16 15
-3 45 -15 67 -26 22 -10 47 -19 56 -19 8 0 53 -16 99 -35 45 -19 90 -35 99
-35 9 0 31 -7 47 -16 29 -15 33 -14 82 12 42 21 50 30 42 41 -6 7 -22 13 -35
13 -13 0 -24 5 -24 10 0 6 -9 10 -20 10 -11 0 -28 4 -38 10 -16 9 -74 33 -117
50 -11 4 -45 15 -75 25 -30 10 -73 26 -95 36 -22 10 -62 25 -90 34 -27 9 -63
22 -80 30 -35 16 -111 44 -140 51 -11 3 -29 9 -40 14 -11 4 -49 19 -85 34 -36
14 -71 26 -78 26 -7 0 -20 4 -30 9 -39 21 -91 41 -105 41 -9 0 -19 5 -22 10
-3 6 -15 10 -26 10 -10 0 -19 5 -19 10 0 6 -10 10 -22 10 -24 0 -112 30 -124
43 -4 4 -16 7 -26 7 -10 0 -18 4 -18 8 0 4 -31 16 -70 27 -38 11 -70 23 -70
27 0 4 -10 8 -23 8 -13 0 -27 4 -33 9 -5 5 -34 16 -64 25 -30 10 -64 21 -75
26 -11 4 -38 15 -60 24 -22 10 -48 21 -57 26 -10 6 -29 10 -43 10 -14 0 -25 5
-25 10 0 6 -8 10 -19 10 -17 0 -114 38 -153 60 -10 6 -25 10 -34 10 -9 0 -53
15 -98 34 -45 19 -94 37 -110 40 -25 6 -90 32 -136 55 -8 4 -45 16 -82 27 -38
10 -68 22 -68 26 0 5 -11 8 -24 8 -14 0 -27 4 -30 9 -4 5 -31 17 -61 26 -30
10 -55 22 -55 26 0 5 -11 9 -25 9 -14 0 -25 3 -25 8 0 4 -28 20 -62 35 -113
51 -212 98 -280 132 -37 18 -69 30 -72 27z"/>
<path d="M596 2333 c-3 -4 -6 -19 -6 -34 0 -21 9 -33 35 -49 20 -12 41 -27 48
-34 6 -6 32 -27 57 -46 25 -19 50 -38 55 -43 6 -4 35 -26 65 -48 30 -23 70
-54 87 -70 18 -16 35 -29 38 -29 4 0 21 -11 39 -25 18 -14 38 -25 45 -25 6 0
19 -4 29 -9 9 -5 42 -17 72 -26 30 -9 74 -25 96 -35 23 -10 71 -27 108 -36 36
-10 66 -22 66 -26 0 -4 7 -8 15 -8 13 0 65 -20 107 -41 10 -5 27 -9 37 -9 11
0 23 -4 26 -10 3 -5 17 -10 31 -10 13 0 24 -4 24 -8 0 -4 17 -13 38 -19 54
-15 123 -40 287 -103 11 -4 47 -16 80 -26 33 -10 62 -21 65 -24 3 -3 46 -19
95 -35 50 -16 92 -33 93 -37 2 -5 14 -8 26 -8 12 0 26 -4 32 -9 5 -4 34 -16
64 -26 30 -10 64 -21 75 -25 70 -26 115 -45 148 -61 22 -11 47 -19 57 -19 16
0 51 -12 115 -39 20 -9 37 -15 138 -46 31 -10 57 -22 57 -27 0 -4 11 -8 25 -8
14 0 25 -4 25 -10 0 -5 7 -10 15 -10 14 0 93 -24 130 -39 107 -45 149 -61 164
-61 9 0 22 -5 28 -11 8 -8 13 -8 17 0 4 6 14 11 22 11 7 0 25 10 39 22 30 26
20 43 -32 53 -19 3 -43 10 -52 15 -9 4 -29 13 -46 20 -16 7 -42 19 -57 26 -14
8 -36 14 -47 14 -12 0 -29 4 -39 9 -29 15 -65 28 -122 47 -30 10 -59 22 -64
26 -6 4 -20 8 -32 8 -13 0 -25 4 -28 9 -3 5 -16 11 -29 15 -13 3 -41 13 -63
23 -21 9 -57 22 -79 29 -55 16 -139 48 -145 55 -3 3 -18 10 -35 14 -16 5 -32
9 -35 10 -3 1 -20 6 -38 10 -18 4 -35 12 -38 16 -3 5 -14 9 -25 9 -10 0 -19 3
-19 8 0 7 -57 30 -100 38 -14 3 -35 10 -47 15 -13 5 -33 13 -45 18 -13 4 -40
16 -61 25 -21 9 -46 16 -57 16 -10 0 -22 5 -25 10 -3 6 -17 10 -31 10 -13 0
-24 5 -24 10 0 6 -8 10 -17 10 -10 0 -40 11 -67 25 -27 14 -60 25 -73 25 -13
0 -23 5 -23 10 0 6 -10 10 -22 10 -13 0 -36 7 -52 15 -15 8 -37 15 -47 15 -11
0 -19 4 -19 8 0 7 -105 42 -128 42 -7 0 -12 5 -12 10 0 6 -11 10 -25 10 -14 0
-25 4 -25 8 0 4 -32 17 -71 27 -39 11 -73 23 -75 27 -3 5 -14 8 -25 8 -10 0
-19 4 -19 9 0 5 -12 11 -27 14 -33 6 -101 29 -173 60 -19 8 -52 21 -72 28 -21
7 -38 17 -38 21 0 4 -12 8 -26 8 -15 0 -48 16 -74 35 -26 19 -52 35 -56 35 -5
0 -25 14 -44 31 -19 17 -53 40 -74 51 -21 11 -47 28 -58 38 -10 9 -34 26 -53
36 -19 10 -35 22 -35 26 0 5 -7 8 -15 8 -8 0 -15 4 -15 9 0 11 -26 22 -34 14z"/>
<path d="M590 2125 c0 -20 42 -66 183 -205 100 -99 194 -186 210 -193 15 -6
27 -15 27 -19 0 -3 14 -10 32 -13 32 -8 44 -12 85 -33 13 -7 30 -12 38 -12 8
0 54 -15 102 -34 49 -18 116 -42 151 -52 34 -11 62 -22 62 -26 0 -5 7 -8 15
-8 8 0 23 -4 33 -10 9 -5 45 -17 80 -27 34 -10 62 -21 62 -25 0 -4 8 -8 18 -8
9 0 44 -11 77 -24 68 -27 179 -65 213 -73 12 -3 22 -9 22 -14 0 -5 11 -9 25
-9 14 0 25 -4 25 -9 0 -4 17 -11 38 -13 20 -3 57 -14 82 -25 78 -35 101 -43
116 -43 9 0 32 -7 52 -16 36 -15 64 -27 107 -45 11 -4 48 -16 83 -26 34 -9 62
-21 62 -25 0 -4 10 -8 23 -8 13 0 27 -4 33 -9 5 -4 34 -16 64 -26 30 -9 62
-21 70 -24 8 -4 43 -16 77 -27 35 -10 63 -22 63 -26 0 -5 16 -8 35 -8 19 0 35
-3 35 -8 0 -4 19 -13 43 -20 23 -8 56 -19 72 -26 108 -47 120 -47 171 -1 l39
34 -27 1 c-15 0 -30 5 -33 10 -3 6 -13 10 -22 10 -14 0 -66 20 -105 41 -10 5
-24 9 -33 9 -15 0 -115 37 -190 70 -22 10 -56 21 -75 25 -19 4 -41 11 -50 15
-8 4 -26 12 -40 17 -14 6 -42 18 -63 27 -21 9 -49 16 -62 16 -14 0 -25 5 -25
10 0 6 -11 10 -25 10 -14 0 -25 3 -25 8 0 4 -28 15 -63 25 -34 10 -70 23 -79
28 -10 5 -27 9 -37 9 -11 0 -22 4 -25 9 -3 5 -18 12 -33 16 -15 3 -45 15 -67
26 -22 10 -50 19 -62 19 -13 0 -26 5 -29 10 -3 6 -13 10 -22 10 -13 0 -61 18
-103 39 -8 4 -55 21 -105 36 -49 16 -92 31 -95 34 -7 8 -70 32 -100 38 -14 2
-35 9 -47 14 -13 5 -33 13 -45 18 -13 4 -40 16 -61 25 -21 9 -46 16 -57 16
-10 0 -22 5 -25 10 -3 6 -17 10 -30 10 -13 0 -26 4 -29 9 -3 5 -18 12 -33 16
-15 3 -45 15 -67 26 -22 10 -47 19 -57 19 -15 0 -50 12 -116 40 -51 22 -70 29
-116 44 -26 8 -73 37 -104 63 -82 69 -143 124 -174 156 -15 15 -30 27 -34 27
-4 0 -22 16 -41 35 -18 19 -36 35 -39 35 -4 0 -13 7 -21 15 -22 22 -34 18 -34
-10z"/>
<path d="M580 1951 c0 -19 11 -43 28 -63 16 -18 37 -44 48 -57 10 -13 37 -44
59 -68 22 -25 46 -55 54 -67 8 -12 22 -28 30 -36 9 -8 32 -35 52 -60 68 -83
84 -98 124 -110 22 -7 44 -16 50 -21 5 -5 18 -9 30 -9 12 0 25 -4 31 -9 5 -4
34 -16 64 -26 30 -10 64 -21 75 -25 11 -4 43 -16 70 -25 28 -10 54 -22 60 -26
5 -5 19 -9 32 -9 13 0 23 -4 23 -9 0 -5 15 -11 33 -14 17 -2 64 -17 102 -32
39 -15 87 -31 109 -36 21 -5 57 -18 79 -29 22 -11 48 -20 57 -20 9 0 20 -4 25
-9 6 -4 35 -16 65 -25 30 -9 64 -21 75 -26 11 -4 43 -16 70 -26 28 -9 54 -21
60 -26 5 -4 21 -8 36 -8 15 0 31 -4 34 -10 3 -5 16 -10 29 -10 12 0 26 -4 32
-9 5 -4 34 -16 64 -26 30 -10 64 -21 75 -25 11 -4 43 -16 70 -25 28 -10 54
-22 59 -26 6 -5 20 -9 33 -9 13 0 23 -4 23 -9 0 -4 17 -11 38 -13 20 -3 57
-15 82 -26 51 -23 114 -45 183 -63 26 -8 47 -16 47 -20 0 -4 15 -10 33 -14 17
-4 37 -9 42 -10 42 -11 56 -8 87 18 21 18 25 26 16 35 -7 7 -19 12 -28 12 -9
0 -20 4 -26 8 -5 5 -36 17 -69 27 -33 10 -70 22 -82 26 -13 5 -33 13 -45 18
-13 4 -40 16 -61 25 -21 9 -44 16 -52 16 -8 0 -15 5 -15 10 0 6 -16 10 -35 10
-19 0 -35 5 -35 10 0 6 -9 10 -20 10 -10 0 -36 7 -57 16 -42 19 -50 22 -143
54 -36 12 -75 25 -87 27 -13 3 -23 9 -23 14 0 5 -11 9 -25 9 -14 0 -25 5 -25
10 0 6 -12 10 -27 10 -16 0 -41 7 -57 15 -15 8 -37 15 -47 15 -11 0 -19 3 -19
8 0 4 -28 15 -63 25 -34 11 -73 23 -87 29 -14 6 -34 14 -45 18 -11 4 -37 15
-58 24 -21 9 -47 16 -57 16 -11 0 -28 4 -38 9 -24 12 -59 26 -117 46 -27 10
-54 22 -60 26 -5 5 -19 9 -32 9 -12 0 -39 7 -60 16 -36 16 -57 24 -113 47 -14
5 -33 13 -42 18 -10 5 -27 9 -39 9 -11 0 -37 7 -57 16 -21 9 -46 20 -57 24
-67 26 -105 39 -145 51 -52 15 -87 35 -113 64 -79 88 -160 176 -202 220 -27
28 -60 63 -72 76 -12 13 -29 30 -37 37 -14 11 -16 9 -16 -17z"/>
<path d="M580 1767 c0 -37 14 -68 49 -107 17 -19 31 -40 31 -47 0 -6 3 -13 8
-15 4 -1 25 -28 47 -58 22 -30 42 -57 46 -60 3 -3 8 -10 10 -16 2 -6 14 -24
27 -40 12 -16 37 -51 55 -78 35 -53 101 -96 147 -96 17 0 91 -26 175 -60 11
-5 45 -16 75 -26 30 -9 64 -20 75 -24 65 -24 112 -43 127 -51 10 -5 29 -9 42
-9 14 0 28 -4 31 -10 3 -5 16 -10 29 -10 12 0 26 -4 31 -9 6 -4 35 -16 65 -26
30 -10 84 -29 120 -41 36 -13 71 -24 78 -24 6 0 12 -4 12 -10 0 -5 11 -10 24
-10 14 0 28 -4 31 -10 3 -5 17 -10 30 -10 13 0 41 -7 62 -16 36 -16 64 -27
108 -44 11 -5 45 -16 75 -24 30 -9 64 -21 75 -26 28 -12 102 -36 157 -51 27
-8 48 -17 48 -21 0 -4 6 -8 12 -8 7 0 42 -11 78 -24 231 -83 228 -82 270 -47
l34 29 -49 22 c-28 12 -58 26 -67 31 -10 5 -28 9 -40 9 -13 1 -34 7 -48 15
-14 8 -35 14 -47 15 -13 0 -23 4 -23 8 0 5 -24 14 -52 21 -60 15 -170 55 -210
77 -14 8 -40 14 -57 14 -17 0 -31 5 -31 10 0 6 -10 10 -23 10 -13 0 -27 4 -32
8 -12 10 -130 54 -210 77 -57 17 -69 22 -115 45 -11 6 -31 10 -44 10 -14 0
-28 5 -31 10 -3 6 -14 10 -23 10 -9 0 -30 7 -46 15 -15 8 -37 15 -47 15 -11 0
-19 5 -19 10 0 6 -11 10 -24 10 -14 0 -27 4 -30 9 -3 5 -22 12 -42 16 -20 3
-44 10 -53 14 -9 4 -25 12 -36 17 -11 6 -47 18 -80 28 -33 10 -68 22 -77 27
-10 5 -27 9 -38 9 -11 0 -20 5 -20 10 0 6 -10 10 -22 10 -13 1 -34 7 -48 15
-14 8 -34 14 -46 15 -11 0 -38 8 -60 19 -21 10 -64 27 -94 37 -30 10 -56 22
-58 27 -2 4 -9 7 -15 7 -7 0 -21 12 -32 26 -10 14 -27 35 -37 46 -10 12 -18
24 -18 28 0 3 -8 15 -18 26 -10 10 -31 37 -47 59 -16 22 -39 50 -52 61 -13 12
-23 26 -23 33 0 6 -4 11 -10 11 -5 0 -10 6 -10 13 0 6 -18 32 -40 55 -38 41
-40 42 -40 19z"/>
<path d="M560 1594 c0 -16 7 -38 15 -48 8 -11 15 -27 15 -35 0 -9 10 -28 23
-43 12 -15 38 -49 57 -75 19 -26 52 -64 73 -85 20 -21 37 -42 37 -47 0 -5 7
-12 16 -15 14 -6 14 -3 -2 21 -10 16 -24 34 -31 41 -7 7 -13 21 -13 31 0 9 -8
26 -18 37 -10 10 -27 34 -37 52 -11 17 -23 32 -27 32 -4 0 -8 5 -8 11 0 6 -22
43 -50 82 -46 65 -50 68 -50 41z"/>
<path d="M930 1131 c8 -7 48 -28 88 -49 40 -20 82 -41 93 -47 10 -5 19 -13 19
-17 0 -5 6 -8 14 -8 12 0 45 -17 134 -71 15 -9 43 -18 63 -22 20 -3 56 -15 80
-26 23 -12 48 -21 55 -21 6 0 25 -7 40 -15 16 -8 39 -15 51 -15 12 0 25 -4 28
-10 3 -5 17 -10 31 -10 13 0 24 -4 24 -10 0 -5 8 -10 18 -10 9 0 49 -12 87
-25 39 -14 78 -25 88 -25 9 0 17 -4 17 -10 0 -5 8 -10 19 -10 10 0 32 -7 47
-15 16 -8 37 -15 46 -15 9 0 20 -4 23 -10 3 -5 19 -10 34 -10 15 0 31 -4 36
-8 6 -4 28 -14 50 -21 44 -14 100 -37 127 -52 10 -5 26 -9 36 -9 20 0 118 -33
129 -43 3 -4 15 -7 25 -7 10 0 18 -4 18 -9 0 -5 21 -12 48 -16 26 -4 56 -12
67 -17 14 -8 20 -8 23 1 2 6 9 11 16 11 7 0 22 8 34 18 20 18 20 18 1 30 -10
7 -30 12 -44 12 -14 0 -25 5 -25 10 0 6 -9 10 -20 10 -11 0 -28 4 -38 9 -9 5
-37 17 -62 26 -25 9 -53 21 -62 26 -10 5 -27 9 -38 9 -11 0 -28 4 -38 9 -9 5
-39 17 -67 26 -27 9 -68 25 -90 35 -22 9 -57 20 -79 24 -21 4 -46 11 -55 16
-9 4 -27 12 -41 18 -14 5 -38 15 -53 21 -15 6 -36 11 -45 11 -9 0 -30 7 -46
15 -15 8 -37 15 -47 15 -11 0 -19 5 -19 10 0 6 -8 10 -19 10 -10 0 -32 7 -47
15 -16 8 -39 15 -52 15 -12 0 -30 4 -40 9 -18 9 -42 19 -112 46 -25 9 -53 21
-62 26 -10 5 -28 9 -41 9 -13 0 -27 4 -33 8 -5 5 -37 17 -71 28 -35 10 -63 22
-63 26 0 5 -15 8 -34 8 -19 0 -38 5 -41 10 -3 6 -14 10 -23 10 -9 0 -30 7 -46
15 -15 8 -36 15 -45 15 -9 0 -21 4 -26 9 -6 6 -30 13 -55 16 -34 5 -41 4 -30
-4z"/>
<path d="M1980 563 c8 -3 22 -14 33 -23 10 -10 38 -26 62 -36 25 -10 45 -22
45 -26 0 -4 6 -8 12 -8 16 0 118 -51 136 -68 8 -7 34 -22 58 -34 43 -20 45
-20 72 -2 30 19 52 40 52 47 0 3 -14 9 -32 12 -18 4 -39 11 -48 15 -49 25
-118 48 -162 56 -21 3 -38 10 -38 15 0 5 -9 9 -20 9 -11 0 -28 4 -38 9 -52 26
-96 41 -120 40 -15 0 -21 -3 -12 -6z"/>
</g>
</svg>
