<?xml version="1.0" standalone="no"?>
<!DOCTYPE svg PUBLIC "-//W3C//DTD SVG 20010904//EN"
 "http://www.w3.org/TR/2001/REC-SVG-20010904/DTD/svg10.dtd">
<svg version="1.0" xmlns="http://www.w3.org/2000/svg"
 width="843.000000pt" height="296.000000pt" viewBox="0 0 843.000000 296.000000"
 preserveAspectRatio="xMidYMid meet">

<g transform="translate(0.000000,296.000000) scale(0.100000,-0.100000)"
fill="#000000" stroke="none">
<path d="M1518 2493 c-49 -12 -21 -19 342 -74 30 -5 140 -22 245 -38 104 -17
191 -28 193 -26 5 5 -7 8 -183 40 -77 14 -183 35 -235 45 -100 20 -336 61
-342 59 -1 -1 -11 -3 -20 -6z"/>
<path d="M1395 2450 c-29 -12 -17 -15 225 -55 412 -68 575 -96 621 -106 45
-10 49 -14 107 -103 32 -51 65 -102 71 -115 7 -12 15 -20 18 -18 7 7 -46 110
-99 192 l-45 71 -159 27 c-88 15 -233 38 -324 53 -91 14 -210 34 -264 45 -108
21 -121 22 -151 9z"/>
<path d="M1295 2412 c-41 -8 -36 -21 11 -27 27 -4 105 -18 174 -30 215 -41
449 -83 605 -110 83 -14 159 -30 170 -34 12 -5 80 -97 153 -205 73 -108 136
-196 139 -196 15 0 -14 51 -132 230 -70 107 -130 198 -134 202 -3 4 -73 18
-156 33 -82 14 -211 36 -285 49 -526 94 -520 93 -545 88z"/>
<path d="M1136 2362 c-7 -12 6 -17 94 -32 36 -6 153 -29 260 -50 107 -21 269
-52 360 -70 91 -17 206 -40 255 -50 50 -10 104 -22 120 -25 21 -4 40 -20 65
-56 90 -128 270 -369 276 -369 12 0 -12 49 -50 100 -22 30 -56 78 -75 105 -19
28 -46 66 -60 86 -14 20 -46 65 -70 100 -24 35 -45 66 -47 68 -2 2 -34 9 -71
16 -135 25 -562 105 -743 140 -214 42 -304 52 -314 37z"/>
<path d="M1011 2319 c-13 -5 -22 -11 -20 -13 2 -3 51 -14 109 -25 58 -11 170
-34 250 -51 80 -17 186 -39 235 -50 50 -10 189 -39 310 -65 121 -25 246 -51
278 -57 l58 -12 175 -223 c96 -123 177 -223 179 -223 12 0 -22 64 -68 125
-191 255 -269 355 -278 361 -6 4 -97 24 -203 45 -680 138 -984 199 -992 198
-5 0 -20 -5 -33 -10z"/>
<path d="M878 2274 c-35 -10 -17 -21 60 -37 42 -9 147 -32 232 -52 85 -20 175
-40 200 -45 25 -5 106 -23 180 -40 179 -41 369 -84 509 -116 63 -14 124 -30
137 -34 12 -5 98 -98 191 -206 92 -109 178 -209 190 -223 32 -38 30 -4 -3 44
-29 43 -280 352 -327 402 -34 36 -23 33 -527 142 -127 27 -282 61 -535 116
-218 48 -278 57 -307 49z"/>
<path d="M822 2198 c-5 -7 -13 -23 -16 -35 -8 -26 4 -30 34 -11 24 15 49 10
425 -82 154 -38 348 -85 430 -105 497 -120 493 -119 550 -181 35 -37 150 -159
277 -291 70 -73 88 -88 88 -70 0 13 -27 52 -68 97 -37 41 -114 126 -172 190
-58 64 -119 133 -137 152 -28 32 -43 39 -145 62 -62 15 -149 35 -193 46 -131
32 -277 66 -510 120 -121 28 -245 57 -275 65 -81 21 -241 55 -261 55 -9 0 -21
-6 -27 -12z"/>
<path d="M823 2090 c-38 -17 -63 -44 -63 -69 0 -5 25 -1 58 10 71 25 119 25
202 0 36 -11 155 -43 265 -71 110 -28 238 -62 285 -75 47 -13 99 -26 117 -30
17 -3 71 -22 120 -41 48 -20 133 -53 188 -74 282 -110 258 -94 484 -309 125
-118 151 -139 151 -120 0 18 -53 77 -202 225 l-203 201 -85 32 c-47 18 -107
41 -135 52 -81 31 -166 54 -440 122 -143 36 -349 88 -457 116 -108 28 -207 51
-220 50 -13 0 -42 -9 -65 -19z"/>
<path d="M4100 1550 l0 -541 103 3 102 3 3 538 2 537 -105 0 -105 0 0 -540z"/>
<path d="M822 1977 c-70 -18 -84 -25 -89 -44 -3 -13 -4 -26 -2 -28 2 -2 51 5
108 14 99 17 106 17 170 1 213 -57 381 -108 481 -148 41 -17 149 -59 240 -95
91 -35 242 -95 335 -131 94 -37 189 -75 213 -84 23 -9 113 -74 200 -144 86
-70 160 -128 165 -128 4 0 7 8 7 18 0 10 -26 41 -57 68 -31 27 -107 93 -167
147 -123 108 -139 119 -276 172 -147 56 -221 86 -255 101 -121 54 -360 140
-465 167 -30 8 -155 42 -277 76 -122 33 -228 61 -235 60 -7 0 -50 -10 -96 -22z"/>
<path d="M816 1858 c-61 -5 -111 -10 -112 -11 -1 -1 -5 -12 -8 -24 l-7 -23
149 0 150 0 264 -101 c144 -56 295 -114 333 -129 39 -15 108 -41 155 -59 47
-18 105 -40 130 -51 25 -10 74 -29 110 -43 36 -14 107 -42 159 -62 52 -20 118
-45 146 -55 69 -24 116 -51 252 -143 62 -43 115 -77 118 -77 3 0 5 10 5 23 0
17 -28 43 -116 107 -64 47 -131 96 -149 110 -43 34 -108 61 -535 224 -52 20
-111 44 -130 52 -19 9 -75 31 -125 49 -49 18 -106 40 -125 48 -161 72 -485
178 -535 175 -11 0 -69 -5 -129 -10z"/>
<path d="M3435 1804 c-33 -10 -88 -37 -114 -56 -30 -23 -43 -23 -40 0 5 52 6
52 -101 52 l-100 0 0 -520 0 -520 100 0 100 0 1 68 c1 37 1 104 0 150 -1 46 1
87 4 92 3 6 23 -2 45 -16 79 -53 208 -69 316 -40 138 37 244 165 264 319 25
202 -51 361 -211 442 -44 23 -69 28 -148 31 -53 1 -105 1 -116 -2z m172 -210
c68 -40 103 -105 103 -196 0 -61 -18 -105 -65 -156 -29 -33 -47 -43 -92 -52
-111 -23 -208 17 -251 103 -30 60 -30 163 -1 225 50 103 197 139 306 76z"/>
<path d="M4765 1801 c-138 -38 -235 -139 -275 -283 -7 -29 -11 -83 -8 -140 3
-78 9 -104 34 -158 67 -142 165 -208 320 -218 97 -6 160 8 227 49 l47 29 0
-35 0 -35 105 0 105 0 0 395 0 395 -105 0 -105 0 0 -42 0 -41 -22 20 c-52 47
-109 67 -203 69 -49 2 -103 -1 -120 -5z m203 -183 c69 -17 127 -79 142 -153
30 -147 -36 -258 -167 -280 -58 -9 -142 11 -179 43 -77 66 -100 189 -54 285
24 51 61 82 119 103 46 17 80 17 139 2z"/>
<path d="M5885 1801 c-38 -10 -112 -47 -120 -61 -13 -21 -25 -9 -25 25 l0 36
-102 -3 -103 -3 -3 -392 -2 -393 104 0 105 0 3 253 c3 216 5 257 21 287 26 52
73 80 135 80 66 0 97 -15 125 -59 21 -34 22 -47 25 -298 l3 -263 105 0 105 0
-3 298 -3 297 -32 62 c-49 93 -113 130 -235 138 -40 2 -86 1 -103 -4z"/>
<path d="M6823 1801 c-17 -4 -56 -22 -87 -40 l-56 -31 0 35 0 35 -105 0 -105
0 2 -392 3 -393 102 -3 101 -3 4 258 c3 237 5 261 23 291 29 49 73 72 135 72
64 0 104 -22 127 -70 17 -34 23 -161 23 -482 l0 -68 105 0 105 0 0 275 c0 252
-2 281 -21 337 -26 79 -69 131 -130 157 -53 23 -175 35 -226 22z"/>
<path d="M7310 1785 c0 -2 12 -30 26 -62 14 -32 32 -71 39 -88 8 -16 68 -151
135 -300 67 -148 122 -281 123 -295 0 -14 -14 -58 -32 -97 -36 -85 -91 -217
-91 -221 0 -1 52 -1 116 0 l116 3 39 95 c22 52 75 183 119 290 122 301 236
581 254 622 9 21 16 42 16 48 0 6 -44 10 -118 10 l-119 0 -27 -72 c-15 -40
-36 -95 -46 -123 -10 -27 -37 -102 -60 -165 -23 -63 -45 -118 -48 -122 -4 -4
-31 55 -61 130 -108 272 -119 297 -131 325 l-13 27 -119 0 c-65 0 -118 -2
-118 -5z"/>
<path d="M666 1734 c-4 -9 -4 -19 -2 -22 7 -7 153 -39 215 -47 63 -8 124 -29
346 -115 88 -34 171 -66 185 -70 14 -5 61 -23 105 -40 44 -17 157 -60 252 -95
95 -36 183 -69 195 -75 13 -5 53 -21 90 -35 38 -14 96 -36 130 -49 35 -13 101
-38 147 -56 47 -17 129 -54 183 -81 95 -48 98 -48 108 -28 7 11 10 22 8 23
-97 63 -271 153 -358 186 -198 74 -597 227 -775 297 -49 19 -155 60 -235 90
-80 30 -172 65 -205 78 -40 16 -107 29 -204 39 -177 20 -177 20 -185 0z"/>
<path d="M650 1635 c0 -14 2 -25 4 -25 2 0 75 -27 162 -60 88 -34 182 -69 209
-79 162 -60 285 -106 400 -149 72 -27 211 -79 310 -116 99 -37 203 -76 230
-87 149 -58 561 -209 572 -209 11 0 39 38 31 45 -15 13 -111 53 -258 108 -97
36 -187 70 -200 76 -22 9 -238 91 -655 247 -66 25 -147 56 -180 69 -181 71
-297 111 -448 156 -92 27 -169 49 -172 49 -3 0 -5 -11 -5 -25z"/>
<path d="M650 1538 c0 -35 231 -163 413 -229 78 -28 180 -66 227 -84 47 -18
141 -53 210 -78 69 -25 222 -82 340 -126 513 -190 571 -211 583 -211 7 0 25 9
41 20 l30 19 -30 11 c-16 6 -81 31 -144 55 -143 54 -302 114 -355 132 -22 8
-83 30 -135 50 -52 20 -124 47 -160 60 -36 14 -76 28 -90 33 -14 4 -68 25
-120 45 -52 20 -149 56 -215 80 -219 80 -349 132 -467 189 -64 31 -119 56
-122 56 -3 0 -6 -10 -6 -22z"/>
<path d="M650 1437 c0 -18 23 -42 102 -103 56 -43 114 -87 128 -96 22 -15 134
-57 515 -193 66 -24 194 -71 285 -105 91 -34 176 -65 190 -70 14 -5 68 -24
120 -43 331 -121 300 -112 328 -94 15 8 28 19 29 24 2 4 -32 21 -75 36 -98 35
-145 53 -312 115 -74 27 -193 71 -265 97 -71 26 -157 58 -190 70 -90 33 -185
68 -340 125 -241 88 -267 100 -380 175 -143 94 -135 91 -135 62z"/>
<path d="M640 1339 c0 -28 201 -224 257 -250 23 -11 97 -39 165 -63 68 -24
332 -119 588 -211 256 -92 476 -171 490 -175 24 -7 80 15 80 31 0 5 -425 164
-645 240 -27 9 -88 32 -135 49 -47 17 -146 53 -220 80 -353 125 -327 112 -454
221 -63 54 -117 99 -120 99 -3 0 -6 -10 -6 -21z"/>
<path d="M640 1238 c0 -24 82 -133 185 -245 13 -14 92 -48 220 -93 190 -67
255 -91 405 -145 36 -13 182 -65 325 -115 237 -84 262 -91 284 -79 14 8 25 18
25 23 1 12 -11 17 -559 211 -181 64 -370 132 -420 150 -49 18 -126 46 -169 61
-85 30 -70 17 -244 204 -49 52 -52 54 -52 28z"/>
<path d="M630 1133 c0 -10 18 -43 40 -73 21 -30 60 -85 85 -121 57 -83 71 -96
126 -113 41 -13 142 -48 679 -236 378 -133 352 -126 384 -105 34 23 33 24
-117 75 -62 21 -184 64 -272 95 -88 32 -178 63 -200 70 -22 7 -58 20 -80 28
-22 8 -101 36 -175 62 -291 101 -258 81 -362 216 -51 65 -96 119 -100 119 -4
0 -8 -8 -8 -17z"/>
<path d="M630 1030 c0 -54 135 -228 211 -272 174 -101 219 -120 449 -197 63
-22 200 -69 304 -105 105 -36 195 -66 202 -66 6 0 22 9 35 19 19 16 21 21 9
24 -18 6 -266 91 -445 153 -71 25 -188 66 -260 90 -71 25 -175 61 -230 80
l-100 35 -84 130 c-46 71 -85 129 -87 129 -2 0 -4 -9 -4 -20z"/>
<path d="M1420 442 c97 -51 197 -106 215 -118 26 -19 45 -17 74 5 l24 18 -79
28 c-44 15 -97 34 -119 42 -52 20 -127 43 -140 43 -5 0 6 -8 25 -18z"/>
</g>
</svg>
